<svg xmlns="http://www.w3.org/2000/svg" viewBox="0 0 100 100">
  <defs>
    <linearGradient id="grad" x1="0%" y1="0%" x2="100%" y2="100%">
      <stop offset="0%" style="stop-color:#1890ff;stop-opacity:1" />
      <stop offset="100%" style="stop-color:#096dd9;stop-opacity:1" />
    </linearGradient>
  </defs>
  <circle cx="50" cy="50" r="45" fill="url(#grad)"/>
  <path d="M35 30 C35 30, 35 25, 40 25 L60 25 C65 25, 65 30, 65 30 L65 45 L35 45 Z" fill="white"/>
  <rect x="42" y="35" width="6" height="6" rx="1" fill="#1890ff"/>
  <rect x="52" y="35" width="6" height="6" rx="1" fill="#1890ff"/>
  <path d="M30 50 L70 50 L70 70 C70 75, 65 80, 60 80 L40 80 C35 80, 30 75, 30 70 Z" fill="white" opacity="0.9"/>
  <rect x="40" y="60" width="20" height="4" rx="2" fill="#1890ff"/>
  <rect x="42" y="68" width="16" height="4" rx="2" fill="#1890ff" opacity="0.6"/>
</svg>
